<mxfile host="app.diagrams.net" modified="2024-05-07T09:31:30.349Z" agent="Mozilla/5.0 (Macintosh; Intel Mac OS X 10_15_7) AppleWebKit/537.36 (KHTML, like Gecko) Chrome/124.0.0.0 Safari/537.36" etag="8qi4GvcFeezDHB75bcc-" version="24.3.1" type="device">
  <diagram name="PÃ¡gina-1" id="KMU8YESsLUgKHjmL2r2j">
    <mxGraphModel dx="984" dy="566" grid="1" gridSize="10" guides="1" tooltips="1" connect="1" arrows="1" fold="1" page="1" pageScale="1" pageWidth="827" pageHeight="1169" math="0" shadow="0">
      <root>
        <mxCell id="0" />
        <mxCell id="1" parent="0" />
        <mxCell id="MBTktnTt9YmX0cxiCA8c-1" value="Operario" style="shape=umlLifeline;perimeter=lifelinePerimeter;whiteSpace=wrap;html=1;container=1;dropTarget=0;collapsible=0;recursiveResize=0;outlineConnect=0;portConstraint=eastwest;newEdgeStyle={&quot;curved&quot;:0,&quot;rounded&quot;:0};participant=umlActor;size=80;" vertex="1" parent="1">
          <mxGeometry x="120" y="60" width="40" height="1060" as="geometry" />
        </mxCell>
        <mxCell id="MBTktnTt9YmX0cxiCA8c-2" value="" style="html=1;points=[[0,0,0,0,5],[0,1,0,0,-5],[1,0,0,0,5],[1,1,0,0,-5]];perimeter=orthogonalPerimeter;outlineConnect=0;targetShapes=umlLifeline;portConstraint=eastwest;newEdgeStyle={&quot;curved&quot;:0,&quot;rounded&quot;:0};" vertex="1" parent="MBTktnTt9YmX0cxiCA8c-1">
          <mxGeometry x="15" y="90" width="10" height="940" as="geometry" />
        </mxCell>
        <mxCell id="MBTktnTt9YmX0cxiCA8c-3" value="&amp;nbsp; &amp;nbsp;UI" style="shape=umlLifeline;perimeter=lifelinePerimeter;whiteSpace=wrap;html=1;container=1;dropTarget=0;collapsible=0;recursiveResize=0;outlineConnect=0;portConstraint=eastwest;newEdgeStyle={&quot;curved&quot;:0,&quot;rounded&quot;:0};participant=umlBoundary;size=60;" vertex="1" parent="1">
          <mxGeometry x="310" y="80" width="70" height="1040" as="geometry" />
        </mxCell>
        <mxCell id="MBTktnTt9YmX0cxiCA8c-4" value="" style="html=1;points=[[0,0,0,0,5],[0,1,0,0,-5],[1,0,0,0,5],[1,1,0,0,-5]];perimeter=orthogonalPerimeter;outlineConnect=0;targetShapes=umlLifeline;portConstraint=eastwest;newEdgeStyle={&quot;curved&quot;:0,&quot;rounded&quot;:0};" vertex="1" parent="MBTktnTt9YmX0cxiCA8c-3">
          <mxGeometry x="30" y="90" width="10" height="160" as="geometry" />
        </mxCell>
        <mxCell id="MBTktnTt9YmX0cxiCA8c-5" value="" style="html=1;points=[[0,0,0,0,5],[0,1,0,0,-5],[1,0,0,0,5],[1,1,0,0,-5]];perimeter=orthogonalPerimeter;outlineConnect=0;targetShapes=umlLifeline;portConstraint=eastwest;newEdgeStyle={&quot;curved&quot;:0,&quot;rounded&quot;:0};" vertex="1" parent="MBTktnTt9YmX0cxiCA8c-3">
          <mxGeometry x="30" y="290" width="10" height="90" as="geometry" />
        </mxCell>
        <mxCell id="MBTktnTt9YmX0cxiCA8c-6" value="" style="html=1;points=[[0,0,0,0,5],[0,1,0,0,-5],[1,0,0,0,5],[1,1,0,0,-5]];perimeter=orthogonalPerimeter;outlineConnect=0;targetShapes=umlLifeline;portConstraint=eastwest;newEdgeStyle={&quot;curved&quot;:0,&quot;rounded&quot;:0};" vertex="1" parent="MBTktnTt9YmX0cxiCA8c-3">
          <mxGeometry x="30" y="480" width="10" height="270" as="geometry" />
        </mxCell>
        <mxCell id="MBTktnTt9YmX0cxiCA8c-7" value="" style="html=1;points=[[0,0,0,0,5],[0,1,0,0,-5],[1,0,0,0,5],[1,1,0,0,-5]];perimeter=orthogonalPerimeter;outlineConnect=0;targetShapes=umlLifeline;portConstraint=eastwest;newEdgeStyle={&quot;curved&quot;:0,&quot;rounded&quot;:0};" vertex="1" parent="MBTktnTt9YmX0cxiCA8c-3">
          <mxGeometry x="30" y="820" width="10" height="190" as="geometry" />
        </mxCell>
        <mxCell id="MBTktnTt9YmX0cxiCA8c-8" value="OrdenProduccion" style="shape=umlLifeline;perimeter=lifelinePerimeter;whiteSpace=wrap;html=1;container=1;dropTarget=0;collapsible=0;recursiveResize=0;outlineConnect=0;portConstraint=eastwest;newEdgeStyle={&quot;curved&quot;:0,&quot;rounded&quot;:0};" vertex="1" parent="1">
          <mxGeometry x="530" y="90" width="100" height="1030" as="geometry" />
        </mxCell>
        <mxCell id="MBTktnTt9YmX0cxiCA8c-9" value="" style="html=1;points=[[0,0,0,0,5],[0,1,0,0,-5],[1,0,0,0,5],[1,1,0,0,-5]];perimeter=orthogonalPerimeter;outlineConnect=0;targetShapes=umlLifeline;portConstraint=eastwest;newEdgeStyle={&quot;curved&quot;:0,&quot;rounded&quot;:0};" vertex="1" parent="MBTktnTt9YmX0cxiCA8c-8">
          <mxGeometry x="45" y="120" width="10" height="120" as="geometry" />
        </mxCell>
        <mxCell id="MBTktnTt9YmX0cxiCA8c-10" value="" style="html=1;points=[[0,0,0,0,5],[0,1,0,0,-5],[1,0,0,0,5],[1,1,0,0,-5]];perimeter=orthogonalPerimeter;outlineConnect=0;targetShapes=umlLifeline;portConstraint=eastwest;newEdgeStyle={&quot;curved&quot;:0,&quot;rounded&quot;:0};" vertex="1" parent="MBTktnTt9YmX0cxiCA8c-8">
          <mxGeometry x="45" y="830" width="10" height="120" as="geometry" />
        </mxCell>
        <mxCell id="MBTktnTt9YmX0cxiCA8c-55" value="" style="html=1;points=[[0,0,0,0,5],[0,1,0,0,-5],[1,0,0,0,5],[1,1,0,0,-5]];perimeter=orthogonalPerimeter;outlineConnect=0;targetShapes=umlLifeline;portConstraint=eastwest;newEdgeStyle={&quot;curved&quot;:0,&quot;rounded&quot;:0};" vertex="1" parent="MBTktnTt9YmX0cxiCA8c-8">
          <mxGeometry x="45" y="520" width="10" height="100" as="geometry" />
        </mxCell>
        <mxCell id="MBTktnTt9YmX0cxiCA8c-13" value="DAL" style="shape=umlLifeline;perimeter=lifelinePerimeter;whiteSpace=wrap;html=1;container=1;dropTarget=0;collapsible=0;recursiveResize=0;outlineConnect=0;portConstraint=eastwest;newEdgeStyle={&quot;curved&quot;:0,&quot;rounded&quot;:0};" vertex="1" parent="1">
          <mxGeometry x="770" y="90" width="100" height="1030" as="geometry" />
        </mxCell>
        <mxCell id="MBTktnTt9YmX0cxiCA8c-14" value="" style="html=1;points=[[0,0,0,0,5],[0,1,0,0,-5],[1,0,0,0,5],[1,1,0,0,-5]];perimeter=orthogonalPerimeter;outlineConnect=0;targetShapes=umlLifeline;portConstraint=eastwest;newEdgeStyle={&quot;curved&quot;:0,&quot;rounded&quot;:0};" vertex="1" parent="MBTktnTt9YmX0cxiCA8c-13">
          <mxGeometry x="45" y="130" width="10" height="110" as="geometry" />
        </mxCell>
        <mxCell id="MBTktnTt9YmX0cxiCA8c-15" value="" style="html=1;points=[[0,0,0,0,5],[0,1,0,0,-5],[1,0,0,0,5],[1,1,0,0,-5]];perimeter=orthogonalPerimeter;outlineConnect=0;targetShapes=umlLifeline;portConstraint=eastwest;newEdgeStyle={&quot;curved&quot;:0,&quot;rounded&quot;:0};" vertex="1" parent="MBTktnTt9YmX0cxiCA8c-13">
          <mxGeometry x="45" y="870" width="10" height="105" as="geometry" />
        </mxCell>
        <mxCell id="MBTktnTt9YmX0cxiCA8c-12" value="" style="html=1;points=[[0,0,0,0,5],[0,1,0,0,-5],[1,0,0,0,5],[1,1,0,0,-5]];perimeter=orthogonalPerimeter;outlineConnect=0;targetShapes=umlLifeline;portConstraint=eastwest;newEdgeStyle={&quot;curved&quot;:0,&quot;rounded&quot;:0};" vertex="1" parent="MBTktnTt9YmX0cxiCA8c-13">
          <mxGeometry x="45" y="520" width="10" height="100" as="geometry" />
        </mxCell>
        <mxCell id="MBTktnTt9YmX0cxiCA8c-45" value="RealizarOrdenProduccion()" style="html=1;verticalAlign=bottom;endArrow=block;curved=0;rounded=0;" edge="1" parent="1">
          <mxGeometry width="80" relative="1" as="geometry">
            <mxPoint x="150" y="200" as="sourcePoint" />
            <mxPoint x="340" y="200" as="targetPoint" />
          </mxGeometry>
        </mxCell>
        <mxCell id="MBTktnTt9YmX0cxiCA8c-46" value="ListarTodo(): List&amp;lt;OrdenProduccion&amp;gt;" style="html=1;verticalAlign=bottom;endArrow=block;curved=0;rounded=0;" edge="1" parent="1" target="MBTktnTt9YmX0cxiCA8c-8">
          <mxGeometry width="80" relative="1" as="geometry">
            <mxPoint x="350" y="230" as="sourcePoint" />
            <mxPoint x="430" y="230" as="targetPoint" />
          </mxGeometry>
        </mxCell>
        <mxCell id="MBTktnTt9YmX0cxiCA8c-47" value="ListarTodo(): List&amp;lt;OrdenProduccion&amp;gt;" style="html=1;verticalAlign=bottom;endArrow=block;curved=0;rounded=0;" edge="1" parent="1" target="MBTktnTt9YmX0cxiCA8c-13">
          <mxGeometry width="80" relative="1" as="geometry">
            <mxPoint x="590" y="250" as="sourcePoint" />
            <mxPoint x="820" y="250" as="targetPoint" />
          </mxGeometry>
        </mxCell>
        <mxCell id="MBTktnTt9YmX0cxiCA8c-48" value="List&amp;lt;OrdenProduccion&amp;gt;" style="html=1;verticalAlign=bottom;endArrow=open;dashed=1;endSize=8;curved=0;rounded=0;" edge="1" parent="1" source="MBTktnTt9YmX0cxiCA8c-14" target="MBTktnTt9YmX0cxiCA8c-9">
          <mxGeometry relative="1" as="geometry">
            <mxPoint x="1070" y="290" as="sourcePoint" />
            <mxPoint x="990" y="290" as="targetPoint" />
          </mxGeometry>
        </mxCell>
        <mxCell id="MBTktnTt9YmX0cxiCA8c-49" value="List&amp;lt;OrdenProduccion&amp;gt;" style="html=1;verticalAlign=bottom;endArrow=open;dashed=1;endSize=8;curved=0;rounded=0;" edge="1" parent="1" target="MBTktnTt9YmX0cxiCA8c-3">
          <mxGeometry relative="1" as="geometry">
            <mxPoint x="570" y="300" as="sourcePoint" />
            <mxPoint x="490" y="300" as="targetPoint" />
          </mxGeometry>
        </mxCell>
        <mxCell id="MBTktnTt9YmX0cxiCA8c-50" value="SeleccionarOrdenProduccion()" style="html=1;verticalAlign=bottom;endArrow=open;dashed=1;endSize=8;curved=0;rounded=0;" edge="1" parent="1" target="MBTktnTt9YmX0cxiCA8c-1">
          <mxGeometry relative="1" as="geometry">
            <mxPoint x="340" y="320" as="sourcePoint" />
            <mxPoint x="260" y="320" as="targetPoint" />
          </mxGeometry>
        </mxCell>
        <mxCell id="MBTktnTt9YmX0cxiCA8c-51" value="SeleccionarOrdenProduccion(OrdenProduccion)" style="html=1;verticalAlign=bottom;endArrow=block;curved=0;rounded=0;" edge="1" parent="1">
          <mxGeometry width="80" relative="1" as="geometry">
            <mxPoint x="150" y="400" as="sourcePoint" />
            <mxPoint x="340" y="400" as="targetPoint" />
          </mxGeometry>
        </mxCell>
        <mxCell id="MBTktnTt9YmX0cxiCA8c-52" value="detallePasos()" style="html=1;verticalAlign=bottom;endArrow=open;dashed=1;endSize=8;curved=0;rounded=0;" edge="1" parent="1">
          <mxGeometry relative="1" as="geometry">
            <mxPoint x="340" y="440" as="sourcePoint" />
            <mxPoint x="150" y="440" as="targetPoint" />
          </mxGeometry>
        </mxCell>
        <mxCell id="MBTktnTt9YmX0cxiCA8c-53" value="FinalizarPasos(Paso)" style="html=1;verticalAlign=bottom;endArrow=block;curved=0;rounded=0;" edge="1" parent="1" target="MBTktnTt9YmX0cxiCA8c-3">
          <mxGeometry width="80" relative="1" as="geometry">
            <mxPoint x="150" y="600" as="sourcePoint" />
            <mxPoint x="230" y="600" as="targetPoint" />
          </mxGeometry>
        </mxCell>
        <mxCell id="MBTktnTt9YmX0cxiCA8c-54" value="Guardar(OrdenProduccion): boolean" style="html=1;verticalAlign=bottom;endArrow=block;curved=0;rounded=0;" edge="1" parent="1" target="MBTktnTt9YmX0cxiCA8c-8">
          <mxGeometry width="80" relative="1" as="geometry">
            <mxPoint x="350" y="620" as="sourcePoint" />
            <mxPoint x="430" y="620" as="targetPoint" />
          </mxGeometry>
        </mxCell>
        <mxCell id="MBTktnTt9YmX0cxiCA8c-56" value="Guardar(OrdenProduccion): boolean" style="html=1;verticalAlign=bottom;endArrow=block;curved=0;rounded=0;" edge="1" parent="1" target="MBTktnTt9YmX0cxiCA8c-12">
          <mxGeometry width="80" relative="1" as="geometry">
            <mxPoint x="590" y="640" as="sourcePoint" />
            <mxPoint x="820" y="640" as="targetPoint" />
          </mxGeometry>
        </mxCell>
        <mxCell id="MBTktnTt9YmX0cxiCA8c-57" value="" style="html=1;verticalAlign=bottom;endArrow=open;dashed=1;endSize=8;curved=0;rounded=0;" edge="1" parent="1" target="MBTktnTt9YmX0cxiCA8c-8">
          <mxGeometry relative="1" as="geometry">
            <mxPoint x="810" y="670" as="sourcePoint" />
            <mxPoint x="990" y="670" as="targetPoint" />
          </mxGeometry>
        </mxCell>
        <mxCell id="MBTktnTt9YmX0cxiCA8c-58" value="" style="html=1;verticalAlign=bottom;endArrow=open;dashed=1;endSize=8;curved=0;rounded=0;" edge="1" parent="1" target="MBTktnTt9YmX0cxiCA8c-3">
          <mxGeometry x="0.0022" relative="1" as="geometry">
            <mxPoint x="570" y="690" as="sourcePoint" />
            <mxPoint x="490" y="690" as="targetPoint" />
            <mxPoint as="offset" />
          </mxGeometry>
        </mxCell>
        <mxCell id="MBTktnTt9YmX0cxiCA8c-59" value="ListarPasosOrdenProduccion()" style="html=1;verticalAlign=bottom;endArrow=block;curved=0;rounded=0;" edge="1" parent="1" target="MBTktnTt9YmX0cxiCA8c-3">
          <mxGeometry width="80" relative="1" as="geometry">
            <mxPoint x="350" y="720" as="sourcePoint" />
            <mxPoint x="400" y="750" as="targetPoint" />
            <Array as="points">
              <mxPoint x="420" y="720" />
              <mxPoint x="420" y="750" />
            </Array>
          </mxGeometry>
        </mxCell>
        <mxCell id="MBTktnTt9YmX0cxiCA8c-60" value="loop" style="shape=umlFrame;whiteSpace=wrap;html=1;pointerEvents=0;" vertex="1" parent="1">
          <mxGeometry x="114" y="540" width="726" height="240" as="geometry" />
        </mxCell>
        <mxCell id="MBTktnTt9YmX0cxiCA8c-61" value="[detallePasos != null]" style="text;html=1;align=center;verticalAlign=middle;resizable=0;points=[];autosize=1;strokeColor=none;fillColor=none;" vertex="1" parent="1">
          <mxGeometry x="170" y="540" width="130" height="30" as="geometry" />
        </mxCell>
        <mxCell id="MBTktnTt9YmX0cxiCA8c-62" value="PasoFinalizado()" style="html=1;verticalAlign=bottom;endArrow=open;dashed=1;endSize=8;curved=0;rounded=0;" edge="1" parent="1" target="MBTktnTt9YmX0cxiCA8c-1">
          <mxGeometry relative="1" as="geometry">
            <mxPoint x="340" y="820" as="sourcePoint" />
            <mxPoint x="260" y="820" as="targetPoint" />
          </mxGeometry>
        </mxCell>
        <mxCell id="MBTktnTt9YmX0cxiCA8c-63" value="ConfirmarOrdenProduccionFinalizada(OrdenProduccion)" style="html=1;verticalAlign=bottom;endArrow=block;curved=0;rounded=0;" edge="1" parent="1" target="MBTktnTt9YmX0cxiCA8c-3">
          <mxGeometry width="80" relative="1" as="geometry">
            <mxPoint x="150" y="920" as="sourcePoint" />
            <mxPoint x="230" y="920" as="targetPoint" />
          </mxGeometry>
        </mxCell>
        <mxCell id="MBTktnTt9YmX0cxiCA8c-64" value="FinalizarOrdenProduccion(OrdenProduccion)" style="html=1;verticalAlign=bottom;endArrow=block;curved=0;rounded=0;" edge="1" parent="1">
          <mxGeometry x="0.0022" width="80" relative="1" as="geometry">
            <mxPoint x="350" y="960" as="sourcePoint" />
            <mxPoint x="570" y="960" as="targetPoint" />
            <mxPoint as="offset" />
          </mxGeometry>
        </mxCell>
        <mxCell id="MBTktnTt9YmX0cxiCA8c-65" value="FinalizarOrdenProduccion(OrdenProduccion)" style="html=1;verticalAlign=bottom;endArrow=block;curved=0;rounded=0;" edge="1" parent="1" target="MBTktnTt9YmX0cxiCA8c-13">
          <mxGeometry width="80" relative="1" as="geometry">
            <mxPoint x="590" y="980" as="sourcePoint" />
            <mxPoint x="820" y="980" as="targetPoint" />
          </mxGeometry>
        </mxCell>
        <mxCell id="MBTktnTt9YmX0cxiCA8c-66" value="" style="html=1;verticalAlign=bottom;endArrow=open;dashed=1;endSize=8;curved=0;rounded=0;" edge="1" parent="1" source="MBTktnTt9YmX0cxiCA8c-15">
          <mxGeometry relative="1" as="geometry">
            <mxPoint x="907" y="1010" as="sourcePoint" />
            <mxPoint x="590" y="1010" as="targetPoint" />
          </mxGeometry>
        </mxCell>
        <mxCell id="MBTktnTt9YmX0cxiCA8c-67" value="" style="html=1;verticalAlign=bottom;endArrow=open;dashed=1;endSize=8;curved=0;rounded=0;" edge="1" parent="1">
          <mxGeometry relative="1" as="geometry">
            <mxPoint x="570" y="1030" as="sourcePoint" />
            <mxPoint x="350" y="1030" as="targetPoint" />
          </mxGeometry>
        </mxCell>
        <mxCell id="MBTktnTt9YmX0cxiCA8c-68" value="Comprobante()" style="html=1;verticalAlign=bottom;endArrow=open;dashed=1;endSize=8;curved=0;rounded=0;" edge="1" parent="1">
          <mxGeometry relative="1" as="geometry">
            <mxPoint x="340" y="1070" as="sourcePoint" />
            <mxPoint x="150" y="1070" as="targetPoint" />
          </mxGeometry>
        </mxCell>
      </root>
    </mxGraphModel>
  </diagram>
</mxfile>
